<svg width="138" height="138" viewBox="0 0 138 138" fill="none" xmlns="http://www.w3.org/2000/svg">
<g clip-path="url(#clip0_95_179)">
<path d="M0 69.0017C0 107.112 30.8896 138.002 68.9983 138C107.109 138 138 107.112 138 69.0017C138.002 30.8913 107.11 0 68.9983 0C30.8861 0 0 30.8913 0 69.0017Z" fill="#421094"/>
<path d="M104.768 35.3731C103.952 34.709 102.753 34.8263 102.085 35.6439L67.3045 79.6102L50.5945 62.8138C49.8527 62.0669 48.6452 62.0617 47.9 62.8069C47.1531 63.5487 47.1496 64.7562 47.8931 65.5014L66.0919 83.795C66.4507 84.1555 66.9371 84.3574 67.4425 84.3574C67.4736 84.3574 67.5046 84.3574 67.5357 84.3574C68.0739 84.3315 68.5758 84.0779 68.9174 83.6587L105.035 38.0555C105.701 37.2413 105.582 36.039 104.768 35.3731Z" fill="#F4F6F9" stroke="white" stroke-width="4" stroke-miterlimit="10" stroke-linecap="square"/>
<path d="M101.216 59.7065C100.189 59.9411 99.5476 60.9622 99.7839 61.9903C100.326 64.3536 100.6 66.7807 100.6 69.206C100.6 87.0684 86.0667 101.602 68.2043 101.602C50.3419 101.602 35.8105 87.0701 35.8105 69.206C35.8105 51.3419 50.3419 36.8105 68.2043 36.8105C73.2517 36.8105 78.0955 37.9456 82.6012 40.1829C83.5465 40.6538 84.6867 40.2692 85.1559 39.3239C85.6234 38.382 85.2387 37.2383 84.2968 36.7708C79.2598 34.2696 73.8468 33 68.2043 33C48.2409 33 32 49.2426 32 69.206C32 89.1694 48.2409 105.412 68.2043 105.412C88.1677 105.412 104.41 89.1694 104.41 69.206C104.41 66.496 104.103 63.7809 103.498 61.1382C103.265 60.1118 102.239 59.4736 101.216 59.7065Z" fill="#F4F6F9" stroke="white" stroke-width="4" stroke-miterlimit="10" stroke-linecap="square"/>
</g>
<defs>
<clipPath id="clip0_95_179">
<rect width="138" height="138" fill="white"/>
</clipPath>
</defs>
</svg>
