<svg width="79" height="111" viewBox="0 0 79 111" fill="none" xmlns="http://www.w3.org/2000/svg">
<path d="M35.8757 3.36152L35.8757 107.638C35.8757 109.495 37.3794 111 39.2345 111C41.0895 111 42.5932 109.495 42.5932 107.638L42.5932 3.36152C42.5932 1.505 41.0895 0 39.2345 0C37.3794 0 35.8757 1.505 35.8757 3.36152Z" fill="#421094"/>
<path d="M47.8337 6.7616L47.8337 92.5965C47.8337 94.453 49.3375 95.958 51.1925 95.958C53.0475 95.958 54.5513 94.453 54.5513 92.5965L54.5513 6.7616C54.5513 4.90509 53.0475 3.4001 51.1925 3.4001C49.3375 3.4001 47.8337 4.90509 47.8337 6.7616Z" fill="#421094"/>
<path d="M59.7948 14.6481L59.7948 76.9822C59.7948 78.8387 61.2986 80.3438 63.1536 80.3438C65.0086 80.3438 66.5124 78.8387 66.5124 76.9822V14.6481C66.5124 12.7916 65.0086 11.2866 63.1536 11.2866C61.2986 11.2866 59.7948 12.7916 59.7948 14.6481Z" fill="#421094"/>
<path d="M71.7529 36.3964V54.3582C71.7529 56.2147 73.2566 57.7197 75.1116 57.7197C76.9667 57.7197 78.4704 56.2147 78.4704 54.3582V36.3964C78.4704 34.5398 76.9667 33.0348 75.1116 33.0348C73.2566 33.0348 71.7529 34.5398 71.7529 36.3964Z" fill="#421094"/>
<path d="M23.9176 6.76161L23.9176 92.5965C23.9176 94.453 25.4214 95.958 27.2764 95.958C29.1314 95.958 30.6352 94.453 30.6352 92.5965L30.6352 6.76161C30.6352 4.90511 29.1314 3.4001 27.2764 3.4001C25.4214 3.4001 23.9176 4.90511 23.9176 6.76161Z" fill="#421094"/>
<path d="M11.9595 14.6462L11.9595 76.9803C11.9595 78.8368 13.4633 80.3418 15.3183 80.3418C17.1733 80.3418 18.6771 78.8368 18.6771 76.9803L18.6771 14.6462C18.6771 12.7896 17.1733 11.2846 15.3183 11.2846C13.4633 11.2846 11.9595 12.7896 11.9595 14.6462Z" fill="#421094"/>
<path d="M0 36.3954L0 54.3572C0 56.2137 1.50378 57.7188 3.35878 57.7188C5.21379 57.7188 6.71756 56.2137 6.71756 54.3572L6.71756 36.3954C6.71756 34.5389 5.21379 33.0339 3.35878 33.0339C1.50378 33.0339 0 34.5389 0 36.3954Z" fill="#421094"/>
</svg>
