<svg width="18" height="19" viewBox="0 0 18 19" fill="none" xmlns="http://www.w3.org/2000/svg">
<path d="M2.33341 5.11872V15.8054L6.55405 13.9966L11.5541 16.4966L15.6667 14.734V4.04729L16.7526 3.58192C16.9642 3.49127 17.2091 3.58925 17.2997 3.80077C17.3219 3.85263 17.3334 3.90847 17.3334 3.9649V15.833L11.5001 18.333L6.50008 15.833L1.24755 18.0841C1.03603 18.1748 0.79109 18.0768 0.70044 17.8653C0.678206 17.8134 0.666748 17.7575 0.666748 17.7011V5.83301L2.33341 5.11872ZM12.5356 9.36851L9.00008 12.9041L5.46455 9.36851C3.51192 7.41592 3.51192 4.2501 5.46455 2.29747C7.41716 0.344852 10.583 0.344852 12.5356 2.29747C14.4882 4.2501 14.4882 7.41592 12.5356 9.36851ZM9.00008 10.5471L11.3571 8.19003C12.6588 6.88828 12.6588 4.77773 11.3571 3.47598C10.0553 2.17424 7.94483 2.17424 6.64306 3.47598C5.34131 4.77773 5.34131 6.88828 6.64306 8.19003L9.00008 10.5471Z" fill="white"/>
</svg>
