<svg width="12" height="15" viewBox="0 0 12 15" fill="none" xmlns="http://www.w3.org/2000/svg">
<path d="M10.2427 10.5757L6 14.8183L1.75736 10.5757C-0.585787 8.23247 -0.585787 4.43351 1.75736 2.09037C4.10051 -0.252779 7.89947 -0.252779 10.2427 2.09037C12.5858 4.43351 12.5858 8.23247 10.2427 10.5757ZM6 8.99967C7.47273 8.99967 8.66667 7.80574 8.66667 6.33301C8.66667 4.86025 7.47273 3.66634 6 3.66634C4.52724 3.66634 3.33333 4.86025 3.33333 6.33301C3.33333 7.80574 4.52724 8.99967 6 8.99967ZM6 7.66634C5.2636 7.66634 4.66667 7.06941 4.66667 6.33301C4.66667 5.59663 5.2636 4.99967 6 4.99967C6.7364 4.99967 7.33333 5.59663 7.33333 6.33301C7.33333 7.06941 6.7364 7.66634 6 7.66634Z" fill="#757575"/>
</svg>
