<svg width="14" height="14" viewBox="0 0 14 14" fill="none" xmlns="http://www.w3.org/2000/svg">
<path d="M4.21944 12.333C3.94489 13.1098 3.20407 13.6663 2.33325 13.6663C1.22869 13.6663 0.333252 12.7709 0.333252 11.6663C0.333252 10.7955 0.889792 10.0547 1.66659 9.78014V4.2192C0.889792 3.94465 0.333252 3.20382 0.333252 2.33301C0.333252 1.22844 1.22869 0.333008 2.33325 0.333008C3.20407 0.333008 3.94489 0.889548 4.21944 1.66634H9.78039C10.0549 0.889548 10.7958 0.333008 11.6666 0.333008C12.7712 0.333008 13.6666 1.22844 13.6666 2.33301C13.6666 3.20382 13.1101 3.94465 12.3333 4.2192V9.78014C13.1101 10.0547 13.6666 10.7955 13.6666 11.6663C13.6666 12.7709 12.7712 13.6663 11.6666 13.6663C10.7958 13.6663 10.0549 13.1098 9.78039 12.333H4.21944ZM4.21944 10.9997H9.78039C9.98125 10.4314 10.4317 9.98101 10.9999 9.78014V4.2192C10.4317 4.01835 9.98125 3.56795 9.78039 2.99967H4.21944C4.01859 3.56795 3.56819 4.01835 2.99992 4.2192V9.78014C3.56819 9.98101 4.01859 10.4314 4.21944 10.9997ZM2.33325 2.99967C2.70144 2.99967 2.99992 2.70119 2.99992 2.33301C2.99992 1.96482 2.70144 1.66634 2.33325 1.66634C1.96507 1.66634 1.66659 1.96482 1.66659 2.33301C1.66659 2.70119 1.96507 2.99967 2.33325 2.99967ZM11.6666 2.99967C12.0348 2.99967 12.3333 2.70119 12.3333 2.33301C12.3333 1.96482 12.0348 1.66634 11.6666 1.66634C11.2984 1.66634 10.9999 1.96482 10.9999 2.33301C10.9999 2.70119 11.2984 2.99967 11.6666 2.99967ZM11.6666 12.333C12.0348 12.333 12.3333 12.0345 12.3333 11.6663C12.3333 11.2981 12.0348 10.9997 11.6666 10.9997C11.2984 10.9997 10.9999 11.2981 10.9999 11.6663C10.9999 12.0345 11.2984 12.333 11.6666 12.333ZM2.33325 12.333C2.70144 12.333 2.99992 12.0345 2.99992 11.6663C2.99992 11.2981 2.70144 10.9997 2.33325 10.9997C1.96507 10.9997 1.66659 11.2981 1.66659 11.6663C1.66659 12.0345 1.96507 12.333 2.33325 12.333Z" fill="#757575"/>
</svg>
