<svg width="20" height="20" viewBox="0 0 20 20" fill="none" xmlns="http://www.w3.org/2000/svg">
<path d="M0.21232 12.0601C-0.0807196 10.6755 -0.0688496 9.2743 0.21316 7.94038C1.32308 8.0711 2.29187 7.7035 2.60865 6.93871C2.92544 6.17392 2.50032 5.22896 1.62307 4.53655C2.3669 3.3939 3.34931 2.39471 4.53554 1.62289C5.228 2.50059 6.17324 2.92601 6.93822 2.60914C7.7032 2.29227 8.0708 1.32308 7.93979 0.21281C9.3243 -0.0802301 10.7255 -0.0683601 12.0595 0.21364C11.9288 1.32356 12.2964 2.29235 13.0612 2.60914C13.8259 2.92593 14.7709 2.5008 15.4633 1.62356C16.606 2.36739 17.6052 3.3498 18.377 4.53602C17.4993 5.22849 17.0739 6.17373 17.3907 6.93871C17.7076 7.70369 18.6768 8.0713 19.7871 7.94028C20.0801 9.3248 20.0682 10.726 19.7862 12.06C18.6763 11.9293 17.7075 12.2969 17.3907 13.0616C17.0739 13.8264 17.4991 14.7714 18.3763 15.4638C17.6325 16.6064 16.6501 17.6056 15.4638 18.3775C14.7714 17.4998 13.8261 17.0743 13.0612 17.3912C12.2962 17.7081 11.9286 18.6773 12.0596 19.7875C10.675 20.0806 9.2738 20.0687 7.93989 19.7867C8.0706 18.6768 7.70301 17.708 6.93822 17.3912C6.17343 17.0744 5.22848 17.4995 4.53606 18.3768C3.39341 17.633 2.39422 16.6506 1.62241 15.4643C2.5001 14.7719 2.92552 13.8266 2.60865 13.0616C2.29179 12.2967 1.32259 11.9291 0.21232 12.0601ZM1.99975 10.2104C3.09956 10.5148 4.00718 11.2117 4.45641 12.2963C4.90564 13.3808 4.75667 14.5154 4.19421 15.5083C4.29077 15.61 4.38998 15.7092 4.49173 15.8056C5.4846 15.2432 6.61912 15.0943 7.70359 15.5435C8.7881 15.9927 9.485 16.9002 9.7894 17.9999C9.9295 18.0037 10.0697 18.0038 10.2099 18.0001C10.5143 16.9003 11.2112 15.9927 12.2958 15.5435C13.3803 15.0942 14.5149 15.2432 15.5078 15.8057C15.6096 15.7091 15.7087 15.6099 15.8051 15.5081C15.2427 14.5153 15.0938 13.3807 15.543 12.2963C15.9922 11.2118 16.8997 10.5149 17.9994 10.2105C18.0032 10.0704 18.0033 9.9301 17.9996 9.7899C16.8998 9.4856 15.9922 8.7886 15.543 7.70407C15.0937 6.61953 15.2427 5.48494 15.8052 4.49204C15.7086 4.39031 15.6094 4.2912 15.5076 4.19479C14.5148 4.75717 13.3803 4.9061 12.2958 4.4569C11.2113 4.0077 10.5144 3.10016 10.21 2.00044C10.0699 1.99666 9.9297 1.99659 9.7894 2.00024C9.4851 3.10005 8.7881 4.00767 7.70359 4.4569C6.61904 4.90613 5.48446 4.75715 4.49155 4.1947C4.38982 4.29126 4.29071 4.39047 4.19431 4.49222C4.75668 5.48509 4.90561 6.61961 4.45641 7.70407C4.00721 8.7885 3.09967 9.4855 1.99995 9.7899C1.99617 9.93 1.9961 10.0702 1.99975 10.2104ZM9.9997 13.0002C8.3428 13.0002 6.99969 11.657 6.99969 10.0002C6.99969 8.3433 8.3428 7.00018 9.9997 7.00018C11.6565 7.00018 12.9997 8.3433 12.9997 10.0002C12.9997 11.657 11.6565 13.0002 9.9997 13.0002ZM9.9997 11.0002C10.552 11.0002 10.9997 10.5525 10.9997 10.0002C10.9997 9.4479 10.552 9.0002 9.9997 9.0002C9.4474 9.0002 8.9997 9.4479 8.9997 10.0002C8.9997 10.5525 9.4474 11.0002 9.9997 11.0002Z" fill="#421094"/>
</svg>
